<svg xmlns="http://www.w3.org/2000/svg" xmlns:xlink="http://www.w3.org/1999/xlink" width="350" zoomAndPan="magnify" viewBox="0 0 262.5 262.500001" height="350" preserveAspectRatio="xMidYMid meet" version="1.0"><defs><clipPath id="83bb39c06f"><path d="M 0 40.140625 L 32 40.140625 L 32 222 L 0 222 Z M 0 40.140625 " clip-rule="nonzero"/></clipPath><clipPath id="758c5a7f8a"><path d="M 46 40.140625 L 78 40.140625 L 78 222 L 46 222 Z M 46 40.140625 " clip-rule="nonzero"/></clipPath><clipPath id="2bf5b8ac8f"><path d="M 92 40.140625 L 124 40.140625 L 124 222 L 92 222 Z M 92 40.140625 " clip-rule="nonzero"/></clipPath><clipPath id="a9dc892fb9"><path d="M 138 40.140625 L 170 40.140625 L 170 222 L 138 222 Z M 138 40.140625 " clip-rule="nonzero"/></clipPath><clipPath id="ebe51f5644"><path d="M 184 40.140625 L 216 40.140625 L 216 222 L 184 222 Z M 184 40.140625 " clip-rule="nonzero"/></clipPath><clipPath id="cb0566ccce"><path d="M 230 40.140625 L 262 40.140625 L 262 222 L 230 222 Z M 230 40.140625 " clip-rule="nonzero"/></clipPath></defs><g clip-path="url(#83bb39c06f)"><path fill="#ffffff" d="M 0 221.984375 L 0 40.203125 L 31.707031 40.203125 L 31.707031 221.984375 Z M 0 221.984375 " fill-opacity="1" fill-rule="nonzero"/></g><g clip-path="url(#758c5a7f8a)"><path fill="#ffffff" d="M 46.101562 221.984375 L 46.101562 40.203125 L 77.808594 40.203125 L 77.808594 221.984375 Z M 46.101562 221.984375 " fill-opacity="1" fill-rule="nonzero"/></g><g clip-path="url(#2bf5b8ac8f)"><path fill="#ffffff" d="M 92.132812 221.984375 L 92.132812 40.203125 L 123.839844 40.203125 L 123.839844 221.984375 Z M 92.132812 221.984375 " fill-opacity="1" fill-rule="nonzero"/></g><g clip-path="url(#a9dc892fb9)"><path fill="#ffffff" d="M 138.230469 221.984375 L 138.230469 40.203125 L 169.9375 40.203125 L 169.9375 221.984375 Z M 138.230469 221.984375 " fill-opacity="1" fill-rule="nonzero"/></g><g clip-path="url(#ebe51f5644)"><path fill="#ffffff" d="M 184.261719 221.984375 L 184.261719 40.203125 L 215.96875 40.203125 L 215.96875 221.984375 Z M 184.261719 221.984375 " fill-opacity="1" fill-rule="nonzero"/></g><g clip-path="url(#cb0566ccce)"><path fill="#ffffff" d="M 230.292969 221.984375 L 230.292969 40.203125 L 262 40.203125 L 262 221.984375 Z M 230.292969 221.984375 " fill-opacity="1" fill-rule="nonzero"/></g></svg>