<svg xmlns="http://www.w3.org/2000/svg" xmlns:xlink="http://www.w3.org/1999/xlink" width="250" zoomAndPan="magnify" viewBox="0 0 187.5 187.499992" height="250" preserveAspectRatio="xMidYMid meet" version="1.0"><defs><clipPath id="37dcf15651"><path d="M 29.328125 18.699219 L 157.984375 18.699219 L 157.984375 143 L 29.328125 143 Z M 29.328125 18.699219 " clip-rule="nonzero"/></clipPath><clipPath id="d8248d6d08"><path d="M 81 108 L 106 108 L 106 168.300781 L 81 168.300781 Z M 81 108 " clip-rule="nonzero"/></clipPath></defs><g clip-path="url(#37dcf15651)"><path fill="#ffffff" d="M 150.871094 25.308594 L 131.800781 25.308594 C 130.375 25.308594 129.019531 25.785156 127.867188 26.601562 L 126.167969 27.820312 C 122.628906 30.390625 118.691406 32.238281 114.535156 33.320312 C 111.292969 24.824219 103.113281 18.746094 93.492188 18.746094 C 83.867188 18.746094 75.691406 24.824219 72.449219 33.324219 C 68.292969 32.238281 64.355469 30.394531 60.8125 27.820312 L 59.113281 26.601562 C 57.960938 25.785156 56.605469 25.308594 55.179688 25.308594 L 36.109375 25.308594 C 32.375 25.308594 29.320312 28.363281 29.320312 32.09375 C 29.320312 35.828125 32.375 38.882812 36.109375 38.882812 L 52.941406 38.882812 C 58.59375 42.992188 65.011719 45.703125 71.746094 47.058594 C 72.539062 50.050781 73.917969 52.765625 75.769531 55.136719 C 63.921875 61.421875 55.859375 73.847656 55.859375 88.226562 L 55.859375 130.980469 C 55.859375 137.429688 61.082031 142.585938 67.460938 142.585938 L 70.925781 142.585938 L 70.925781 121.070312 C 70.925781 108.585938 81.035156 98.472656 93.523438 98.472656 C 105.945312 98.472656 116.058594 108.585938 116.058594 121.070312 L 116.058594 142.585938 L 119.519531 142.585938 C 125.898438 142.585938 131.125 137.429688 131.125 130.980469 L 131.125 88.226562 C 131.125 77.839844 126.914062 68.472656 120.128906 61.617188 C 117.496094 59.03125 114.492188 56.859375 111.234375 55.113281 C 113.0625 52.765625 114.425781 50.074219 115.21875 47.121094 C 121.941406 45.746094 128.332031 42.992188 134.042969 38.882812 L 150.871094 38.882812 C 154.605469 38.882812 157.660156 35.828125 157.660156 32.09375 C 157.660156 28.363281 154.605469 25.308594 150.871094 25.308594 Z M 93.492188 28.925781 C 100.328125 28.925781 105.890625 34.488281 105.890625 41.320312 C 105.890625 48.152344 100.328125 53.714844 93.492188 53.714844 C 86.65625 53.714844 81.097656 48.152344 81.097656 41.320312 C 81.097656 34.488281 86.65625 28.925781 93.492188 28.925781 Z M 93.492188 28.925781 " fill-opacity="1" fill-rule="nonzero"/></g><g clip-path="url(#d8248d6d08)"><path fill="#ffffff" d="M 93.492188 108.660156 C 86.667969 108.660156 81.085938 114.242188 81.085938 121.066406 L 81.085938 155.847656 C 81.085938 162.671875 86.667969 168.253906 93.492188 168.253906 C 100.316406 168.253906 105.898438 162.671875 105.898438 155.847656 L 105.898438 121.066406 C 105.898438 114.242188 100.316406 108.660156 93.492188 108.660156 Z M 93.492188 108.660156 " fill-opacity="1" fill-rule="nonzero"/></g></svg>